#!OML:ASF F:\VICON\USERDATA\INSTALL\rory3\rory3.ASF
:FULLY-SPECIFIED
:DEGREES
173
root -1.77177 21.4734 15.5726 21.26 16.118 -4.90725
lowerback -2.98067 -6.08363 8.45116
upperback -7.31742 -7.83219 5.38059
thorax -6.41381 -4.19606 1.22621
lowerneck -16.1586 -1.50775 -7.24763
upperneck 17.3361 -1.06896 3.96049
head 8.09897 -0.589926 2.39346
rclavicle 6.80341e-014 5.00937e-014
rhumerus 31.6233 11.3633 -10.4787
rradius 48.817
rwrist -2.85047
rhand -21.6891 -45.8308
rfingers 7.12502
rthumb 4.70901 284.242
lclavicle 6.80341e-014 5.00937e-014
lhumerus 44.1072 -10.8736 7.65381
lradius 36.1068
lwrist 10.9727
lhand -26.8454 -33.1579
lfingers 7.12502
lthumb -0.270786 -3.17829
rfemur -109.405 -7.81079 13.9224
rtibia 46.6681
rfoot 27.0269 -12.4649
rtoes -17.3717
lfemur 8.93076 -2.10365 -19.3863
ltibia 16.1747
lfoot 31.4279 -1.73658
ltoes -8.20748
174
root -1.77935 21.5868 16.0329 21.4804 16.0966 -2.95951
lowerback -3.62414 -6.31375 6.84148
upperback -7.62833 -8.22246 4.9525
thorax -6.20755 -4.32427 1.58479
lowerneck -14.8961 -1.38812 -7.68454
upperneck 17.8051 -0.902848 3.94583
head 8.02431 -0.559732 2.48348
rclavicle 1.7344e-014 -5.32743e-014
rhumerus 33.0791 7.4618 -14.3638
rradius 42.0191
rwrist 1.8987
rhand -20.3384 -45.1145
rfingers 7.12502
rthumb 6.01307 284.991
lclavicle 1.7344e-014 -5.32743e-014
lhumerus 43.352 -8.73405 11.3951
lradius 31.9672
lwrist 6.73299
lhand -26.1734 -34.8018
lfingers 7.12502
lthumb 0.378266 -4.82244
rfemur -108.835 -8.74926 12.5799
rtibia 45.6166
rfoot 27.0901 -13.4698
rtoes -15.094
lfemur 11.1596 -1.25947 -20.797
ltibia 16.601
lfoot 31.9856 -1.66643
ltoes -7.59203
175
root -1.79041 21.6917 16.5 21.7672 16.1558 -1.04763
lowerback -4.46559 -6.51679 5.31017
upperback -7.70634 -8.58397 4.4795
thorax -5.6497 -4.43913 1.80102
lowerneck -14.1993 -1.34028 -8.0188
upperneck 18.0871 -0.816267 3.91984
head 7.99101 -0.554405 2.54196
rclavicle -1.19271e-014 3.97569e-015
rhumerus 29.3398 9.79138 -9.9473
rradius 44.3775
rwrist -2.96266
rhand -19.8264 -44.312
rfingers 7.12502
rthumb 6.50745 285.808
lclavicle -1.19271e-014 3.97569e-015
lhumerus 40.0894 -9.70947 9.28347
lradius 33.2093
lwrist 8.4775
lhand -27.3756 -34.8623
lfingers 7.12502
lthumb -0.782873 -4.88401
rfemur -108.276 -9.69927 11.256
rtibia 44.8003
rfoot 27.076 -14.269
rtoes -13.3438
lfemur 13.2408 -0.512407 -22.0275
ltibia 17.2861
lfoot 32.6275 -1.49566
ltoes -7.54015
176
root -1.80941 21.7826 16.9652 22.0311 16.022 0.888689
lowerback -4.93849 -6.61542 3.63726
upperback -7.8993 -8.74711 3.92205
thorax -5.41033 -4.45386 2.06275
lowerneck -13.3971 -1.33593 -8.00131
upperneck 18.2258 -0.843217 3.71319
head 7.8956 -0.594914 2.46737
rclavicle -3.06625e-014 -1.66979e-014
rhumerus 27.43 8.9378 -9.56131
rradius 43.1557
rwrist -2.6796
rhand -19.4494 -41.5029
rfingers 7.12502
rthumb 6.87137 288.629
lclavicle -3.06625e-014 -1.66979e-014
lhumerus 37.6646 -9.93184 8.7269
lradius 33.1379
lwrist 8.37271
lhand -27.9463 -35.6985
lfingers 7.12502
lthumb -1.334 -5.72288
rfemur -107.637 -10.4026 9.7016
rtibia 44.1598
rfoot 27.5386 -14.1581
rtoes -13.8335
lfemur 15.0381 0.636788 -23.1152
ltibia 18.7521
lfoot 33.0623 -1.03633
ltoes -8.16027
177
root -1.82783 21.8707 17.4198 22.0431 15.877 2.39716
lowerback -4.95151 -6.65802 2.32295
upperback -8.10707 -8.79979 3.51303
thorax -5.48157 -4.42379 2.35387
lowerneck -12.7142 -1.38887 -7.91093
upperneck 18.2634 -0.924244 3.36203
head 7.79085 -0.666701 2.32646
rclavicle 1.15295e-014 1.35174e-014
rhumerus 25.905 6.96156 -10.0609
rradius 41.3404
rwrist -0.747076
rhand -19.5631 -40.8332
rfingers 7.12502
rthumb 6.76163 289.295
lclavicle 1.15295e-014 1.35174e-014
lhumerus 35.3432 -10.241 8.21774
lradius 32.772
lwrist 8.33917
lhand -28.0024 -36.2377
lfingers 7.12502
lthumb -1.38824 -6.26251
rfemur -106.731 -10.8073 8.52167
rtibia 43.6522
rfoot 27.8594 -14.0463
rtoes -14.1349
lfemur 16.4362 1.98712 -23.6188
ltibia 21.3033
lfoot 33.0448 -0.499831
ltoes -9.83927
178
root -1.84886 21.9658 17.8764 21.9804 15.764 3.24213
lowerback -5.377 -6.65837 1.45628
upperback -8.03246 -8.80864 3.3536
thorax -5.0535 -4.39124 2.58255
lowerneck -12.1602 -1.44813 -8.08164
upperneck 17.9224 -0.993529 3.24735
head 7.58556 -0.719768 2.30589
rclavicle 2.15681e-014 2.22639e-014
rhumerus 24.3666 4.36019 -10.5974
rradius 40.1681
rwrist 1.12646
rhand -19.5413 -42.5722
rfingers 7.12502
rthumb 6.78268 287.556
lclavicle 2.15681e-014 2.22639e-014
lhumerus 32.8624 -10.5767 7.27994
lradius 32.8582
lwrist 8.86959
lhand -29.0636 -36.5105
lfingers 7.12502
lthumb -2.41311 -6.54437
rfemur -105.66 -10.8 7.77484
rtibia 43.2114
rfoot 28.0077 -14.4863
rtoes -13.5793
lfemur 17.1382 3.41609 -23.3692
ltibia 24.7574
lfoot 32.7467 -1.27172
ltoes -12.6011
